<svg width="151" height="204" viewBox="0 0 151 204" fill="none" xmlns="http://www.w3.org/2000/svg">
<path d="M150.647 95.1992L75.3237 120.252L0 95.1992V120.422L75.3237 145.304L150.647 120.422V95.1992Z" fill="#888B8C"/>
<path d="M0 90.1897L75.3237 69.3125L150.647 90.1897L75.3237 116.077L0 90.1897Z" fill="#888B8C"/>
<path d="M75.3235 96.0345C81.3324 96.0345 86.2036 94.1651 86.2036 91.859C86.2036 89.553 81.3324 87.6836 75.3235 87.6836C69.3145 87.6836 64.4434 89.553 64.4434 91.859C64.4434 94.1651 69.3145 96.0345 75.3235 96.0345Z" fill="white"/>
<path d="M150.647 124.428L75.3237 149.48L0 124.428V149.651L75.3237 174.533L150.647 149.651V124.428Z" fill="#57A0C7"/>
<path d="M150.647 153.656L75.3237 178.709L0 153.656V178.879L75.3237 203.762L150.647 178.879V153.656Z" fill="#ECB44B"/>
<path d="M87.0406 132.361C88.6584 132.361 89.9698 131.053 89.9698 129.438C89.9698 127.824 88.6584 126.516 87.0406 126.516C85.4228 126.516 84.1113 127.824 84.1113 129.438C84.1113 131.053 85.4228 132.361 87.0406 132.361Z" fill="white" stroke="white"/>
<path d="M87.0406 161.59C88.6584 161.59 89.9698 160.281 89.9698 158.667C89.9698 157.053 88.6584 155.744 87.0406 155.744C85.4228 155.744 84.1113 157.053 84.1113 158.667C84.1113 160.281 85.4228 161.59 87.0406 161.59Z" fill="white" stroke="white"/>
<path d="M87.0406 190.816C88.6584 190.816 89.9698 189.508 89.9698 187.894C89.9698 186.279 88.6584 184.971 87.0406 184.971C85.4228 184.971 84.1113 186.279 84.1113 187.894C84.1113 189.508 85.4228 190.816 87.0406 190.816Z" fill="white" stroke="white"/>
<path d="M96.2457 129.021C97.8634 129.021 99.1749 127.713 99.1749 126.099C99.1749 124.484 97.8634 123.176 96.2457 123.176C94.6279 123.176 93.3164 124.484 93.3164 126.099C93.3164 127.713 94.6279 129.021 96.2457 129.021Z" fill="white" stroke="white"/>
<path d="M96.2457 158.248C97.8634 158.248 99.1749 156.939 99.1749 155.325C99.1749 153.711 97.8634 152.402 96.2457 152.402C94.6279 152.402 93.3164 153.711 93.3164 155.325C93.3164 156.939 94.6279 158.248 96.2457 158.248Z" fill="white" stroke="white"/>
<path d="M96.2457 187.476C97.8634 187.476 99.1749 186.168 99.1749 184.554C99.1749 182.939 97.8634 181.631 96.2457 181.631C94.6279 181.631 93.3164 182.939 93.3164 184.554C93.3164 186.168 94.6279 187.476 96.2457 187.476Z" fill="white" stroke="white"/>
<path d="M104.615 126.516C106.233 126.516 107.544 125.207 107.544 123.593C107.544 121.979 106.233 120.67 104.615 120.67C102.997 120.67 101.686 121.979 101.686 123.593C101.686 125.207 102.997 126.516 104.615 126.516Z" fill="white" stroke="white"/>
<path d="M104.615 155.744C106.233 155.744 107.544 154.435 107.544 152.821C107.544 151.207 106.233 149.898 104.615 149.898C102.997 149.898 101.686 151.207 101.686 152.821C101.686 154.435 102.997 155.744 104.615 155.744Z" fill="white" stroke="white"/>
<path d="M104.615 184.973C106.233 184.973 107.544 183.664 107.544 182.05C107.544 180.436 106.233 179.127 104.615 179.127C102.997 179.127 101.686 180.436 101.686 182.05C101.686 183.664 102.997 184.973 104.615 184.973Z" fill="white" stroke="white"/>
<path d="M125.77 115.791L139.997 111.066" stroke="white" stroke-width="6" stroke-linecap="round"/>
<path d="M125.77 145.02L139.997 140.295" stroke="white" stroke-width="6" stroke-linecap="round"/>
<path d="M125.77 174.248L139.997 169.523" stroke="white" stroke-width="6" stroke-linecap="round"/>
<path d="M75.0058 45.9298C77.5157 45.9298 79.6641 45.0303 81.451 43.2314C83.2387 41.4325 84.1325 39.27 84.1325 36.7439C84.1325 34.2177 83.2387 32.0552 81.451 30.2563C79.6641 28.4574 77.5157 27.5579 75.0058 27.5579C72.4958 27.5579 70.3474 28.4574 68.5598 30.2563C66.7721 32.0552 65.8786 34.2177 65.8786 36.7439C65.8786 39.27 66.7721 41.4325 68.5598 43.2314C70.3474 45.0303 72.4958 45.9298 75.0058 45.9298ZM75.323 91.8596C63.0778 81.3726 53.6144 71.6313 47.5679 62.6368C41.5213 53.6422 38.498 45.3175 38.498 37.6625C38.498 26.18 42.1678 17.0323 49.5074 10.2194C56.8468 3.40649 65.3463 0 75.0058 0C84.6648 0 93.1638 3.40649 100.504 10.2194C107.844 17.0323 111.513 26.18 111.513 37.6625C111.513 45.3175 108.49 53.6422 102.443 62.6368C96.3969 71.6313 87.5681 81.3726 75.323 91.8596Z" fill="#ECB44B"/>
<path d="M75.3236 54.2807C85.0303 54.2807 92.8991 46.4292 92.8991 36.7439C92.8991 27.0585 85.0303 19.207 75.3236 19.207C65.6169 19.207 57.748 27.0585 57.748 36.7439C57.748 46.4292 65.6169 54.2807 75.3236 54.2807Z" fill="white"/>
</svg>
