<svg width="126" height="167" viewBox="0 0 126 167" fill="none" xmlns="http://www.w3.org/2000/svg">
<path d="M120.108 142.074L62.5537 161.142L5 142.074V122.746L62.5537 141.943L120.108 122.746V142.074ZM120.108 119.677L62.5537 138.744L5 119.677V100.349L62.5537 119.546L120.108 100.349V119.677ZM120.108 97.2793L62.5537 116.347L5 97.2793V77.9512L62.5537 97.1484L120.108 77.9512V97.2793ZM62.3115 5C69.6917 5.00009 76.1857 7.61047 81.7939 12.8311C87.4022 18.0517 90.206 25.0615 90.2061 33.8604C90.2061 39.7263 87.8957 46.1056 83.2754 52.998C81.3439 55.8798 79.0394 58.8606 76.3291 61.9424L120.108 74.1113L62.5537 93.9492L5 74.1113L48.5361 62.0088C45.701 58.9035 43.2912 55.9004 41.3457 52.998C36.7257 46.1057 34.416 39.7263 34.416 33.8604C34.416 25.0615 37.2201 18.0517 42.8281 12.8311C48.4361 7.61038 54.9308 5 62.3115 5Z" fill="white"/>
<path d="M120.108 142.074L121.681 146.821C123.727 146.143 125.108 144.23 125.108 142.074H120.108ZM62.5537 161.142L60.9813 165.888C62.0023 166.226 63.1051 166.226 64.1261 165.888L62.5537 161.142ZM5 142.074H0C0 144.23 1.3814 146.143 3.42756 146.821L5 142.074ZM5 122.746L6.58208 118.003C5.05728 117.494 3.38093 117.75 2.07685 118.69C0.772773 119.629 0 121.139 0 122.746H5ZM62.5537 141.943L60.9716 146.686C61.9985 147.029 63.1089 147.029 64.1358 146.686L62.5537 141.943ZM120.108 122.746H125.108C125.108 121.139 124.336 119.629 123.032 118.69C121.727 117.75 120.051 117.494 118.526 118.003L120.108 122.746ZM120.108 119.677L121.681 124.423C123.727 123.745 125.108 121.832 125.108 119.677H120.108ZM62.5537 138.744L60.9813 143.49C62.0023 143.829 63.1051 143.829 64.1261 143.49L62.5537 138.744ZM5 119.677H0C0 121.832 1.3814 123.745 3.42756 124.423L5 119.677ZM5 100.349L6.58208 95.6055C5.05728 95.0969 3.38093 95.3524 2.07685 96.2921C0.772773 97.2319 0 98.7412 0 100.349H5ZM62.5537 119.546L60.9716 124.289C61.9985 124.632 63.1089 124.632 64.1358 124.289L62.5537 119.546ZM120.108 100.349H125.108C125.108 98.7412 124.336 97.2319 123.032 96.2921C121.727 95.3524 120.051 95.0969 118.526 95.6055L120.108 100.349ZM120.108 97.2793L121.681 102.026C123.727 101.348 125.108 99.4348 125.108 97.2793H120.108ZM62.5537 116.347L60.9813 121.093C62.0023 121.431 63.1051 121.431 64.1261 121.093L62.5537 116.347ZM5 97.2793H0C0 99.4348 1.3814 101.348 3.42756 102.026L5 97.2793ZM5 77.9512L6.58208 73.2081C5.05728 72.6995 3.38093 72.9549 2.07685 73.8947C0.772773 74.8344 0 76.3438 0 77.9512H5ZM62.5537 97.1484L60.9716 101.892C61.9985 102.234 63.1089 102.234 64.1358 101.892L62.5537 97.1484ZM120.108 77.9512H125.108C125.108 76.3438 124.336 74.8344 123.032 73.8947C121.727 72.9549 120.051 72.6995 118.526 73.2081L120.108 77.9512ZM62.3115 5L62.3116 0H62.3115V5ZM81.7939 12.8311L85.2008 9.17132L85.2007 9.1713L81.7939 12.8311ZM90.2061 33.8604L95.2061 33.8604L95.2061 33.8603L90.2061 33.8604ZM83.2754 52.998L79.1222 50.214L79.122 50.2143L83.2754 52.998ZM76.3291 61.9424L72.5745 58.6404C71.438 59.9327 71.046 61.7186 71.5367 63.3681C72.0274 65.0176 73.332 66.2989 74.9901 66.7597L76.3291 61.9424ZM120.108 74.1113L121.738 78.8384C123.808 78.1249 125.173 76.1478 125.106 73.9593C125.04 71.7709 123.557 69.8803 121.447 69.294L120.108 74.1113ZM62.5537 93.9492L60.9244 98.6763C61.9801 99.0402 63.1273 99.0402 64.183 98.6763L62.5537 93.9492ZM5 74.1113L3.66084 69.294C1.55141 69.8804 0.0688459 71.771 0.00230943 73.9594C-0.064227 76.1478 1.30075 78.1249 3.37065 78.8384L5 74.1113ZM48.5361 62.0088L49.8753 66.8261C51.5493 66.3608 52.8617 65.0597 53.3416 63.3898C53.8215 61.7199 53.4001 59.9206 52.2286 58.6375L48.5361 62.0088ZM41.3457 52.998L37.1924 55.782L37.1925 55.782L41.3457 52.998ZM34.416 33.8604L29.416 33.8603V33.8604H34.416ZM42.8281 12.8311L46.235 16.4907L46.235 16.4907L42.8281 12.8311ZM120.108 142.074L118.536 137.328L60.9813 156.395L62.5537 161.142L64.1261 165.888L121.681 146.821L120.108 142.074ZM62.5537 161.142L64.1261 156.395L6.57244 137.328L5 142.074L3.42756 146.821L60.9813 165.888L62.5537 161.142ZM5 142.074H10V122.746H5H0V142.074H5ZM5 122.746L3.41792 127.489L60.9716 146.686L62.5537 141.943L64.1358 137.2L6.58208 118.003L5 122.746ZM62.5537 141.943L64.1358 146.686L121.69 127.489L120.108 122.746L118.526 118.003L60.9717 137.2L62.5537 141.943ZM120.108 122.746H115.108V142.074H120.108H125.108V122.746H120.108ZM120.108 119.677L118.536 114.93L60.9813 133.998L62.5537 138.744L64.1261 143.49L121.681 124.423L120.108 119.677ZM62.5537 138.744L64.1261 133.998L6.57244 114.93L5 119.677L3.42756 124.423L60.9813 143.49L62.5537 138.744ZM5 119.677H10V100.349H5H0V119.677H5ZM5 100.349L3.41792 105.092L60.9716 124.289L62.5537 119.546L64.1358 114.803L6.58208 95.6055L5 100.349ZM62.5537 119.546L64.1358 124.289L121.69 105.092L120.108 100.349L118.526 95.6055L60.9717 114.803L62.5537 119.546ZM120.108 100.349H115.108V119.677H120.108H125.108V100.349H120.108ZM120.108 97.2793L118.536 92.533L60.9813 111.6L62.5537 116.347L64.1261 121.093L121.681 102.026L120.108 97.2793ZM62.5537 116.347L64.1261 111.6L6.57244 92.533L5 97.2793L3.42756 102.026L60.9813 121.093L62.5537 116.347ZM5 97.2793H10V77.9512H5H0V97.2793H5ZM5 77.9512L3.41792 82.6943L60.9716 101.892L62.5537 97.1484L64.1358 92.4053L6.58208 73.2081L5 77.9512ZM62.5537 97.1484L64.1358 101.892L121.69 82.6943L120.108 77.9512L118.526 73.2081L60.9717 92.4053L62.5537 97.1484ZM120.108 77.9512H115.108V97.2793H120.108H125.108V77.9512H120.108ZM62.3115 5L62.3115 10C68.3751 10.0001 73.6652 12.0952 78.3872 16.4908L81.7939 12.8311L85.2007 9.1713C78.7063 3.12572 71.0083 0.000106405 62.3116 3.74243e-10L62.3115 5ZM81.7939 12.8311L78.3871 16.4908C82.8248 20.6218 85.206 26.2235 85.2061 33.8604L90.2061 33.8604L95.2061 33.8603C95.206 23.8995 91.9796 15.4816 85.2008 9.17132L81.7939 12.8311ZM90.2061 33.8604H85.2061C85.2061 38.4026 83.4102 43.8172 79.1222 50.214L83.2754 52.998L87.4286 55.7821C92.3812 48.3939 95.2061 41.0501 95.2061 33.8604H90.2061ZM83.2754 52.998L79.122 50.2143C77.3259 52.894 75.1583 55.7025 72.5745 58.6404L76.3291 61.9424L80.0837 65.2444C82.9206 62.0186 85.3618 58.8657 87.4288 55.7818L83.2754 52.998ZM76.3291 61.9424L74.9901 66.7597L118.769 78.9287L120.108 74.1113L121.447 69.294L77.6681 57.125L76.3291 61.9424ZM120.108 74.1113L118.479 69.3842L60.9244 89.2221L62.5537 93.9492L64.183 98.6763L121.738 78.8384L120.108 74.1113ZM62.5537 93.9492L64.1831 89.2221L6.62935 69.3843L5 74.1113L3.37065 78.8384L60.9244 98.6763L62.5537 93.9492ZM5 74.1113L6.33916 78.9287L49.8753 66.8261L48.5361 62.0088L47.197 57.1915L3.66084 69.294L5 74.1113ZM48.5361 62.0088L52.2286 58.6375C49.5187 55.6694 47.2744 52.8628 45.499 50.2141L41.3457 52.998L37.1925 55.782C39.308 58.9381 41.8832 62.1376 44.8437 65.3801L48.5361 62.0088ZM41.3457 52.998L45.499 50.2141C41.2114 43.8177 39.416 38.4028 39.416 33.8604H34.416H29.416C29.416 41.0497 32.24 48.3936 37.1924 55.782L41.3457 52.998ZM34.416 33.8604L39.416 33.8604C39.416 26.2236 41.7974 20.6218 46.235 16.4907L42.8281 12.8311L39.4213 9.17138C32.6428 15.4816 29.416 23.8994 29.416 33.8603L34.416 33.8604ZM42.8281 12.8311L46.235 16.4907C50.9566 12.0953 56.2472 10 62.3115 10V5V0C53.6144 0 45.9157 3.12551 39.4212 9.1714L42.8281 12.8311Z" fill="white"/>
<path d="M120.108 77.9512L62.554 97.1488L5 77.9512V97.2794L62.554 116.346L120.108 97.2794V77.9512Z" fill="#888B8C"/>
<path d="M5 74.1113L62.554 58.1133L120.108 74.1113L62.554 93.9489L5 74.1113Z" fill="#888B8C"/>
<path d="M62.5536 78.5916C67.1449 78.5916 70.8669 77.1591 70.8669 75.392C70.8669 73.6249 67.1449 72.1924 62.5536 72.1924C57.9622 72.1924 54.2402 73.6249 54.2402 75.392C54.2402 77.1591 57.9622 78.5916 62.5536 78.5916Z" fill="white"/>
<path d="M120.108 100.349L62.554 119.546L5 100.349V119.677L62.554 138.744L120.108 119.677V100.349Z" fill="#57A0C7"/>
<path d="M120.108 122.746L62.554 141.944L5 122.746V142.074L62.554 161.141L120.108 142.074V122.746Z" fill="#ECB44B"/>
<path d="M71.5058 106.428C72.7419 106.428 73.744 105.425 73.744 104.188C73.744 102.951 72.7419 101.948 71.5058 101.948C70.2697 101.948 69.2676 102.951 69.2676 104.188C69.2676 105.425 70.2697 106.428 71.5058 106.428Z" fill="white" stroke="white"/>
<path d="M71.5058 128.825C72.7419 128.825 73.744 127.822 73.744 126.585C73.744 125.348 72.7419 124.346 71.5058 124.346C70.2697 124.346 69.2676 125.348 69.2676 126.585C69.2676 127.822 70.2697 128.825 71.5058 128.825Z" fill="white" stroke="white"/>
<path d="M71.5058 151.223C72.7419 151.223 73.744 150.22 73.744 148.983C73.744 147.746 72.7419 146.743 71.5058 146.743C70.2697 146.743 69.2676 147.746 69.2676 148.983C69.2676 150.22 70.2697 151.223 71.5058 151.223Z" fill="white" stroke="white"/>
<path d="M78.5409 103.868C79.7771 103.868 80.7792 102.865 80.7792 101.628C80.7792 100.391 79.7771 99.3887 78.5409 99.3887C77.3048 99.3887 76.3027 100.391 76.3027 101.628C76.3027 102.865 77.3048 103.868 78.5409 103.868Z" fill="white" stroke="white"/>
<path d="M78.5409 126.265C79.7771 126.265 80.7792 125.262 80.7792 124.025C80.7792 122.788 79.7771 121.785 78.5409 121.785C77.3048 121.785 76.3027 122.788 76.3027 124.025C76.3027 125.262 77.3048 126.265 78.5409 126.265Z" fill="white" stroke="white"/>
<path d="M78.5409 148.662C79.7771 148.662 80.7792 147.659 80.7792 146.422C80.7792 145.185 79.7771 144.183 78.5409 144.183C77.3048 144.183 76.3027 145.185 76.3027 146.422C76.3027 147.659 77.3048 148.662 78.5409 148.662Z" fill="white" stroke="white"/>
<path d="M84.9355 101.948C86.1716 101.948 87.1737 100.945 87.1737 99.7085C87.1737 98.4715 86.1716 97.4688 84.9355 97.4688C83.6993 97.4688 82.6973 98.4715 82.6973 99.7085C82.6973 100.945 83.6993 101.948 84.9355 101.948Z" fill="white" stroke="white"/>
<path d="M84.9355 124.346C86.1716 124.346 87.1737 123.343 87.1737 122.106C87.1737 120.869 86.1716 119.866 84.9355 119.866C83.6993 119.866 82.6973 120.869 82.6973 122.106C82.6973 123.343 83.6993 124.346 84.9355 124.346Z" fill="white" stroke="white"/>
<path d="M84.9355 146.742C86.1716 146.742 87.1737 145.739 87.1737 144.502C87.1737 143.265 86.1716 142.263 84.9355 142.263C83.6993 142.263 82.6973 143.265 82.6973 144.502C82.6973 145.739 83.6993 146.742 84.9355 146.742Z" fill="white" stroke="white"/>
<path d="M101.1 93.7301L111.971 90.1094Z" fill="white"/>
<path d="M101.1 93.7301L111.971 90.1094" stroke="white" stroke-width="6" stroke-linecap="round"/>
<path d="M101.1 116.128L111.971 112.507Z" fill="white"/>
<path d="M101.1 116.128L111.971 112.507" stroke="white" stroke-width="6" stroke-linecap="round"/>
<path d="M101.1 138.525L111.971 134.904Z" fill="white"/>
<path d="M101.1 138.525L111.971 134.904" stroke="white" stroke-width="6" stroke-linecap="round"/>
<path d="M62.3111 40.1957C64.229 40.1957 65.8705 39.5064 67.2358 38.1279C68.6018 36.7494 69.2848 35.0923 69.2848 33.1565C69.2848 31.2208 68.6018 29.5636 67.2358 28.1852C65.8705 26.8067 64.229 26.1174 62.3111 26.1174C60.3933 26.1174 58.7517 26.8067 57.3858 28.1852C56.0199 29.5636 55.3372 31.2208 55.3372 33.1565C55.3372 35.0923 56.0199 36.7494 57.3858 38.1279C58.7517 39.5064 60.3933 40.1957 62.3111 40.1957ZM62.5535 75.3914C53.1971 67.3552 45.9663 59.8905 41.3462 52.9981C36.726 46.1056 34.416 39.7264 34.416 33.8605C34.416 25.0615 37.22 18.0517 42.8281 12.831C48.4361 7.61037 54.9304 5 62.3111 5C69.6915 5 76.1855 7.61037 81.7938 12.831C87.4021 18.0517 90.2056 25.0615 90.2056 33.8605C90.2056 39.7264 87.8958 46.1056 83.2755 52.9981C78.6558 59.8905 71.9099 67.3552 62.5535 75.3914Z" fill="#ECB44B"/>
<path d="M62.5547 20.2178C69.6948 20.218 75.4834 26.0104 75.4834 33.1562C75.4833 40.302 69.6948 46.0945 62.5547 46.0947C55.4144 46.0947 49.6251 40.3022 49.625 33.1562C49.625 26.0103 55.4144 20.2178 62.5547 20.2178Z" fill="white" stroke="white"/>
</svg>
