<svg width="20" height="26" viewBox="0 0 20 26" fill="none" xmlns="http://www.w3.org/2000/svg">
<path fill-rule="evenodd" clip-rule="evenodd" d="M10.1865 8.70776L0.5 11.3306L10.1865 14.5828L19.8731 11.3306L10.1865 8.70776ZM11.5856 11.5405C11.5856 11.8302 10.9592 12.0651 10.1865 12.0651C9.41372 12.0651 8.7873 11.8302 8.7873 11.5405C8.7873 11.2508 9.41372 11.016 10.1865 11.016C10.9592 11.016 11.5856 11.2508 11.5856 11.5405Z" fill="white"/>
<path fill-rule="evenodd" clip-rule="evenodd" d="M6.61729 7.86905C7.39488 8.99904 8.61185 10.2228 10.1866 11.5403C11.7613 10.2228 12.8966 8.99904 13.6742 7.86905C14.4518 6.73906 14.8405 5.69323 14.8405 4.73153C14.8405 3.289 14.3687 2.13976 13.4248 1.28387C12.4809 0.427962 11.3879 0 10.1458 0C8.90357 0 7.81056 0.427962 6.86671 1.28387C5.92285 2.13976 5.45093 3.289 5.45093 4.73153C5.45093 5.69323 5.83971 6.73906 6.61729 7.86905ZM12.4469 4.6161C12.4469 5.83287 11.435 6.81926 10.1867 6.81926C8.93843 6.81926 7.9265 5.83287 7.9265 4.6161C7.9265 3.39933 8.93843 2.41294 10.1867 2.41294C11.435 2.41294 12.4469 3.39933 12.4469 4.6161Z" fill="white"/>
<path fill-rule="evenodd" clip-rule="evenodd" d="M19.8734 19.3037L10.1868 22.451L0.500244 19.3037V22.4724L10.1868 25.5984L19.8734 22.4724V19.3037ZM13.9537 23.2377C14.1617 23.2377 14.3304 23.0733 14.3304 22.8705C14.3304 22.6677 14.1617 22.5033 13.9537 22.5033C13.7456 22.5033 13.577 22.6677 13.577 22.8705C13.577 23.0733 13.7456 23.2377 13.9537 23.2377ZM13.2541 23.1853C13.2541 23.3881 13.0855 23.5525 12.8774 23.5525C12.6694 23.5525 12.5007 23.3881 12.5007 23.1853C12.5007 22.9825 12.6694 22.818 12.8774 22.818C13.0855 22.818 13.2541 22.9825 13.2541 23.1853ZM11.6934 23.9722C11.9014 23.9722 12.0701 23.8078 12.0701 23.605C12.0701 23.4022 11.9014 23.2379 11.6934 23.2379C11.4853 23.2379 11.3167 23.4022 11.3167 23.605C11.3167 23.8078 11.4853 23.9722 11.6934 23.9722ZM16.5166 21.4332C16.254 21.5176 16.1113 21.7934 16.198 22.0493C16.2846 22.3051 16.5677 22.4441 16.8304 22.3596L18.669 21.7688C18.9317 21.6844 19.0744 21.4084 18.9878 21.1527C18.9011 20.8968 18.6178 20.7579 18.3553 20.8423L16.5166 21.4332Z" fill="white"/>
<path fill-rule="evenodd" clip-rule="evenodd" d="M19.8734 15.6318L10.1868 18.7793L0.500244 15.6318V18.8006L10.1868 21.9265L19.8734 18.8006V15.6318ZM13.9537 19.566C14.1617 19.566 14.3304 19.4016 14.3304 19.1988C14.3304 18.996 14.1617 18.8317 13.9537 18.8317C13.7456 18.8317 13.577 18.996 13.577 19.1988C13.577 19.4016 13.7456 19.566 13.9537 19.566ZM13.2541 19.5134C13.2541 19.7162 13.0855 19.8806 12.8774 19.8806C12.6694 19.8806 12.5007 19.7162 12.5007 19.5134C12.5007 19.3106 12.6694 19.1463 12.8774 19.1463C13.0855 19.1463 13.2541 19.3106 13.2541 19.5134ZM11.6934 20.3005C11.9014 20.3005 12.0701 20.1361 12.0701 19.9333C12.0701 19.7305 11.9014 19.566 11.6934 19.566C11.4853 19.566 11.3167 19.7305 11.3167 19.9333C11.3167 20.1361 11.4853 20.3005 11.6934 20.3005ZM16.5558 17.7221C16.2931 17.8064 16.1503 18.0823 16.237 18.3381C16.3237 18.594 16.6069 18.733 16.8695 18.6486L18.7082 18.0576C18.9708 17.9731 19.1135 17.6974 19.0268 17.4415C18.9401 17.1857 18.657 17.0467 18.3943 17.1311L16.5558 17.7221Z" fill="white"/>
<path fill-rule="evenodd" clip-rule="evenodd" d="M19.8731 11.9602L10.1865 15.1076L0.5 11.9602V15.1289L10.1865 18.2549L19.8731 15.1289V11.9602ZM13.9534 15.8942C14.1615 15.8942 14.3301 15.73 14.3301 15.5272C14.3301 15.3244 14.1615 15.1599 13.9534 15.1599C13.7454 15.1599 13.5767 15.3244 13.5767 15.5272C13.5767 15.73 13.7454 15.8942 13.9534 15.8942ZM13.2539 15.8419C13.2539 16.0447 13.0852 16.2092 12.8772 16.2092C12.6692 16.2092 12.5005 16.0447 12.5005 15.8419C12.5005 15.6391 12.6692 15.4747 12.8772 15.4747C13.0852 15.4747 13.2539 15.6391 13.2539 15.8419ZM11.6932 16.6287C11.9012 16.6287 12.0699 16.4643 12.0699 16.2615C12.0699 16.0587 11.9012 15.8944 11.6932 15.8944C11.4851 15.8944 11.3165 16.0587 11.3165 16.2615C11.3165 16.4643 11.4851 16.6287 11.6932 16.6287ZM16.5555 14.1155C16.2928 14.1999 16.1501 14.4758 16.2368 14.7315C16.3234 14.9875 16.6067 15.1265 16.8692 15.0421L18.708 14.451C18.9705 14.3666 19.1132 14.0909 19.0266 13.835C18.9399 13.5792 18.6568 13.4402 18.3941 13.5246L16.5555 14.1155Z" fill="white"/>
</svg>
