<svg width="2638" height="2280" viewBox="0 0 2638 2280" fill="#1CABE2" xmlns="http://www.w3.org/2000/svg">
<path d="M1316.59 0C822.873 0 416.285 399.317 416.285 900.279C416.285 1393.98 815.612 1800.56 1316.59 1800.56C1810.3 1800.56 2216.89 1401.24 2216.89 900.279C2216.89 399.317 1810.3 0 1316.59 0ZM2013.6 399.317C1970.03 428.359 1919.21 457.4 1868.39 486.441C1839.34 428.359 1803.04 370.276 1759.48 319.454C1795.78 297.673 1832.08 268.632 1861.13 246.851C1926.47 283.152 1977.29 341.235 2013.6 399.317ZM1636.05 101.644C1708.65 130.686 1774 166.987 1839.34 217.81C1810.3 246.851 1774 268.632 1737.7 290.413C1694.13 239.59 1643.31 196.029 1592.49 152.467C1607.01 130.686 1621.53 116.165 1636.05 101.644ZM1708.65 304.933C1657.83 333.975 1607.01 348.495 1556.18 370.276C1534.4 319.454 1512.62 268.632 1483.58 225.07C1512.62 210.549 1541.66 196.029 1563.44 174.248C1614.27 210.549 1665.09 254.111 1708.65 304.933ZM1599.75 87.1238C1585.23 101.644 1570.7 116.165 1563.44 130.686C1512.62 101.644 1469.06 72.6032 1410.97 50.8222C1476.32 50.8222 1541.66 65.3429 1599.75 87.1238ZM1534.4 152.467C1512.62 166.987 1490.84 181.508 1469.06 188.768C1440.02 145.206 1410.97 108.905 1381.93 65.3429C1432.76 87.1238 1483.58 116.165 1534.4 152.467ZM1331.11 72.6032C1367.41 108.905 1396.45 152.467 1425.49 203.289C1396.45 210.549 1367.41 217.81 1331.11 217.81V72.6032ZM1331.11 254.111C1367.41 254.111 1410.97 246.851 1447.28 232.33C1476.32 275.892 1498.1 326.714 1519.88 377.537C1461.8 392.057 1396.45 399.317 1331.11 406.578V254.111ZM1294.81 72.6032V217.81C1265.76 217.81 1236.72 210.549 1200.42 203.289C1236.72 159.727 1265.76 116.165 1294.81 72.6032ZM1171.38 188.768C1149.6 181.508 1120.55 166.987 1106.03 152.467C1156.86 123.425 1207.68 94.3841 1258.5 72.6032C1222.2 108.905 1193.16 145.206 1171.38 188.768ZM1222.2 43.5619C1171.38 65.3429 1120.55 94.3841 1069.73 123.425C1055.21 108.905 1040.69 94.3841 1033.43 79.8635C1091.51 65.3429 1156.86 50.8222 1222.2 43.5619ZM1839.34 1582.75C1723.18 1517.41 1715.92 1423.02 1723.18 1393.98C1730.44 1357.68 1752.22 1372.2 1766.74 1372.2C1846.6 1372.2 1926.47 1350.42 2028.12 1241.51C2144.28 1125.35 2180.59 863.978 1999.07 696.991C1810.3 515.483 1607.01 544.524 1476.32 711.511C1447.28 747.813 1381.93 769.594 1331.11 769.594C1243.98 769.594 1302.07 834.937 1302.07 849.457C1302.07 863.978 1287.55 871.238 1280.28 871.238C1251.24 863.978 1265.76 907.54 1265.76 914.8C1265.76 922.06 1251.24 936.581 1251.24 936.581C1214.94 936.581 1222.2 965.622 1229.46 980.143C1229.46 987.403 1229.46 1001.92 1214.94 1009.18C1200.42 1016.44 1193.16 1045.49 1193.16 1067.27C1193.16 1103.57 1229.46 1132.61 1287.55 1176.17C1345.63 1219.73 1352.89 1263.3 1352.89 1292.34C1352.89 1321.38 1360.15 1372.2 1367.41 1401.24C1381.93 1437.54 1381.93 1510.15 1302.07 1510.15C1200.42 1517.41 1026.17 1590.01 1011.65 1597.27C953.562 1619.05 880.957 1626.31 822.873 1611.79C793.831 1590.01 764.789 1568.23 735.747 1539.19C721.226 1502.89 743.008 1459.32 764.789 1430.28C801.092 1466.58 844.655 1459.32 873.697 1459.32C902.739 1459.32 1033.43 1437.54 1055.21 1430.28C1076.99 1423.02 1084.25 1423.02 1091.51 1430.28C1142.34 1452.06 1214.94 1452.06 1243.98 1357.68C1273.02 1256.04 1207.68 1285.08 1193.16 1292.34C1185.9 1299.6 1171.38 1292.34 1178.64 1285.08C1193.16 1263.3 1171.38 1263.3 1164.12 1263.3C1135.07 1263.3 1098.77 1292.34 1091.51 1299.6C1076.99 1306.86 1069.73 1306.86 1062.47 1306.86C1026.17 1285.08 917.259 1314.12 880.957 1256.03C880.957 1241.51 851.915 1001.92 837.394 958.362C837.394 951.102 830.133 936.581 844.654 922.06C873.696 878.498 946.302 922.06 989.865 922.06C1040.69 922.06 1047.95 900.279 1062.47 885.759C1076.99 871.238 1084.25 878.498 1091.51 871.238C1098.77 863.978 1091.51 856.718 1091.51 849.457C1091.51 842.197 1098.77 849.457 1106.03 842.197C1113.29 834.937 1106.03 820.416 1106.03 813.156C1120.55 791.375 1149.6 805.895 1135.07 762.333C1127.81 733.292 1142.34 704.251 1156.86 689.73C1178.64 660.689 1273.02 530.003 1113.29 392.057C960.823 261.371 801.091 275.892 699.444 384.797C597.797 493.702 648.621 653.429 655.881 696.991C663.142 740.552 634.1 776.854 597.798 791.375C568.756 805.895 503.411 849.457 459.848 885.759C467.109 537.264 677.663 232.33 997.125 108.905C1011.65 123.425 1026.17 145.206 1040.69 159.727C1004.39 188.768 924.52 254.111 924.52 254.111C924.52 254.111 931.781 254.111 946.302 261.371C953.562 261.371 968.083 268.632 968.083 268.632C968.083 268.632 1033.43 210.549 1069.73 188.768C1091.51 210.549 1120.55 225.07 1149.6 239.59C1135.07 268.632 1091.51 341.235 1091.51 341.235C1091.51 341.235 1098.77 348.495 1106.03 348.495C1113.29 355.756 1120.55 355.756 1120.55 355.756C1120.55 355.756 1164.12 275.892 1178.64 246.851C1214.94 261.371 1251.24 268.632 1287.55 268.632V413.838C1265.76 413.838 1214.94 413.838 1193.16 406.578H1178.64L1185.9 421.098C1193.16 428.359 1193.16 435.619 1200.42 442.879C1214.94 442.879 1265.76 442.879 1287.55 442.879V711.511H1323.85V646.168C1381.93 646.168 1425.5 638.908 1476.32 631.648L1527.14 588.086H1498.1C1440.02 595.346 1389.19 602.606 1345.63 602.606C1345.63 602.606 1331.11 602.606 1323.85 602.606V435.619C1389.19 435.619 1461.8 428.359 1527.14 406.578C1541.66 450.14 1577.97 559.044 1577.97 559.044L1614.27 544.524C1614.27 544.524 1577.97 435.619 1563.44 392.057C1621.53 377.537 1672.35 348.495 1723.18 326.714C1766.74 377.537 1803.04 435.619 1832.08 493.702C1803.04 508.222 1759.48 522.743 1759.48 522.743C1795.78 530.003 1824.82 537.264 1824.82 537.264C1824.82 537.264 1839.34 530.003 1846.6 530.003C1846.6 537.264 1853.86 551.784 1853.86 551.784L1904.69 573.565L1897.43 559.044C1897.43 559.044 1882.91 522.743 1875.65 515.483C1926.47 493.702 1977.29 464.66 2028.12 428.359C2122.5 566.305 2166.07 733.292 2166.07 900.279C2180.59 1176.17 2042.64 1423.02 1839.34 1582.75Z" fill="#1CABE2"/>
<path d="M336.421 239.59L321.9 254.111C271.077 297.673 147.648 421.098 169.43 559.044V566.305L176.69 595.346L191.211 580.825C263.816 515.482 321.901 399.317 343.682 268.632L350.943 232.33L336.421 239.59Z" fill="#1CABE2"/>
<path d="M89.5646 471.92L82.3037 486.441C75.0432 508.222 60.5226 559.044 53.2621 617.127C38.7411 704.251 46.0012 834.936 118.606 929.32L125.867 943.841L133.128 958.362L147.648 900.279C162.169 798.635 140.388 588.086 104.085 493.701L89.5646 464.66V471.92Z" fill="#1CABE2"/>
<path d="M2.43704 834.936V849.457C-4.82346 936.581 2.43704 1161.65 183.95 1285.08L205.731 1299.6V1270.56C205.731 1183.43 104.084 929.32 31.4792 842.197L9.69744 813.155L2.43704 834.936Z" fill="#1CABE2"/>
<path d="M31.4805 1234.25V1248.77C60.5225 1379.46 176.69 1582.75 365.464 1648.09L394.506 1655.35L387.245 1626.31C350.943 1531.93 169.43 1306.86 53.2622 1234.25L31.4805 1219.73V1234.25Z" fill="#1CABE2"/>
<path d="M416.287 435.619L394.505 442.879C256.556 530.003 191.211 631.647 191.211 762.333V791.374L212.993 776.854C285.598 711.511 387.245 551.784 409.026 464.66L416.287 428.358V435.619Z" fill="#1CABE2"/>
<path d="M329.159 711.511L321.899 726.032C285.597 762.334 169.428 885.759 176.689 1038.23C176.689 1060.01 183.949 1089.05 191.21 1110.83L198.471 1132.61L212.991 1110.83C271.076 1030.97 343.68 827.676 336.42 733.292V704.251L329.159 711.511Z" fill="#1CABE2"/>
<path d="M336.421 980.143L329.161 994.664C271.077 1081.79 242.035 1168.91 242.035 1256.04C242.035 1314.12 263.816 1372.2 300.119 1430.28L314.64 1452.06L321.901 1430.28C343.682 1379.46 365.464 1226.99 365.464 1103.57C365.464 1060.01 358.203 1023.71 350.943 1001.92L343.682 972.883L336.421 980.143Z" fill="#1CABE2"/>
<path d="M401.766 1263.29L394.506 1277.82C379.985 1335.9 365.464 1386.72 372.724 1444.8C372.724 1560.97 430.809 1655.35 532.456 1720.7L546.976 1727.96L554.237 1706.17V1684.39C554.237 1590.01 481.632 1343.16 423.548 1270.56L409.027 1248.77L401.766 1263.29Z" fill="#1CABE2"/>
<path d="M205.731 1640.83L212.991 1655.35C285.597 1778.78 416.285 1945.76 655.882 1902.2H677.664L663.143 1887.68C619.579 1822.34 329.159 1655.35 227.512 1640.83L198.471 1633.57L205.731 1640.83Z" fill="#1CABE2"/>
<path d="M561.496 1960.29L525.193 1967.55L561.496 1982.07C713.966 2047.41 902.739 2061.93 1018.91 2025.63C1062.47 2011.11 1084.25 1989.33 1113.29 1960.29C1309.33 1982.07 1490.84 2141.79 1599.75 2272.48L1607.01 2279.74H1614.27C1628.79 2272.48 1643.31 2257.96 1650.57 2250.7L1657.83 2243.44L1650.57 2236.18C1541.66 2090.97 1367.41 2003.85 1360.15 1996.59C1200.42 1923.98 924.521 1865.9 561.496 1960.29Z" fill="#1CABE2"/>
<path d="M568.756 1553.71V1568.23C590.538 1713.43 648.622 1902.2 895.479 1880.42H910L902.74 1865.9C888.219 1800.56 663.143 1611.79 583.277 1560.97L561.496 1546.45L568.756 1553.71Z" fill="#1CABE2"/>
<path d="M2282.23 225.07L2289.49 261.372C2311.28 392.058 2369.36 508.223 2441.97 573.566L2456.49 588.086L2463.75 559.045V551.785C2485.53 413.839 2362.1 290.413 2311.28 246.851L2296.76 232.331L2282.23 225.07Z" fill="#1CABE2"/>
<path d="M2536.35 457.4L2521.83 486.442C2485.53 580.826 2471.01 791.375 2478.27 893.019L2492.79 951.102L2500.05 943.842L2507.31 929.321C2587.18 834.937 2587.18 711.511 2572.65 617.127C2565.39 551.785 2550.87 508.223 2543.61 486.442L2536.35 471.921V457.4Z" fill="#1CABE2"/>
<path d="M2630.74 820.416L2608.96 849.457C2536.35 943.841 2434.71 1190.69 2434.71 1277.82V1306.86L2456.49 1292.34C2638 1176.17 2645.26 951.102 2638 856.718V842.197L2630.74 820.416Z" fill="#1CABE2"/>
<path d="M2601.7 1219.73L2572.66 1234.25C2456.49 1306.86 2274.98 1531.93 2238.67 1626.31L2231.41 1655.35L2260.45 1648.09C2449.23 1590.01 2572.66 1379.46 2594.44 1248.77V1234.25L2601.7 1219.73Z" fill="#1CABE2"/>
<path d="M2216.89 421.099L2224.15 457.4C2253.19 551.784 2340.32 711.511 2420.18 776.854L2441.97 791.375V762.334C2449.23 631.648 2383.88 530.003 2245.93 442.88L2231.41 435.619L2216.89 421.099Z" fill="#1CABE2"/>
<path d="M2296.76 704.251V733.292C2289.5 827.676 2369.36 1038.23 2420.18 1110.83L2434.71 1132.61L2441.97 1110.83C2449.23 1081.79 2456.49 1060.01 2456.49 1038.23C2463.75 885.759 2347.58 762.334 2311.28 726.032L2304.02 718.772L2296.76 704.251Z" fill="#1CABE2"/>
<path d="M2289.5 965.622L2282.24 994.663C2274.98 1016.44 2267.71 1052.75 2267.71 1096.31C2267.71 1219.73 2282.24 1372.2 2311.28 1423.02L2318.54 1444.8L2333.06 1423.02C2369.36 1372.2 2391.14 1314.12 2391.14 1248.77C2391.14 1168.91 2362.1 1074.53 2304.02 987.403L2296.76 972.882L2289.5 965.622Z" fill="#1CABE2"/>
<path d="M2224.15 1248.77L2209.63 1270.56C2151.55 1343.16 2078.94 1590.01 2078.94 1684.39C2078.94 1684.39 2078.94 1698.91 2078.94 1706.17L2086.2 1727.96L2100.72 1720.7C2202.37 1655.35 2253.19 1560.97 2260.45 1444.8C2260.45 1393.98 2253.19 1335.9 2238.67 1277.82L2231.41 1263.29L2224.15 1248.77Z" fill="#1CABE2"/>
<path d="M2434.71 1626.31L2405.66 1633.57C2304.02 1648.09 2013.6 1815.08 1970.03 1880.42L1955.51 1894.94H1977.29C2216.89 1938.5 2347.58 1771.52 2420.18 1648.09L2427.44 1633.57L2434.71 1626.31Z" fill="#1CABE2"/>
<path d="M1280.29 1996.59C1273.03 1996.59 1098.77 2090.97 989.866 2236.18L982.605 2243.44L989.866 2250.7C997.126 2257.96 1018.91 2272.48 1026.17 2279.74H1033.43L1040.69 2272.48C1149.6 2141.79 1331.11 1974.81 1527.14 1960.29C1556.19 1989.33 1585.23 2011.11 1621.53 2025.63C1730.44 2061.93 1926.47 2047.41 2078.94 1982.07L2115.24 1967.55L2078.94 1960.29C1708.66 1865.9 1432.76 1923.98 1280.29 1996.59Z" fill="#1CABE2"/>
<path d="M2064.42 1539.19L2042.64 1553.71C1962.77 1604.53 1744.96 1793.3 1723.18 1858.64L1715.92 1873.16H1730.44C1970.03 1894.94 2028.12 1706.17 2057.16 1560.97V1546.45L2064.42 1539.19Z" fill="#1CABE2"/>
</svg>

